<svg width="14" height="16" viewBox="0 0 14 16" fill="none" xmlns="http://www.w3.org/2000/svg">
  <g clip-path="url(#clip0_728_898)">
    <path d="M11.2 5.9H12.6C12.7856 5.9 12.9637 5.97375 13.0949 6.10503C13.2262 6.2363 13.3 6.41435 13.3 6.6V15C13.3 15.1857 13.2262 15.3637 13.0949 15.495C12.9637 15.6263 12.7856 15.7 12.6 15.7H1.39995C1.2143 15.7 1.03625 15.6263 0.904976 15.495C0.773701 15.3637 0.699951 15.1857 0.699951 15V6.6C0.699951 6.41435 0.773701 6.2363 0.904976 6.10503C1.03625 5.97375 1.2143 5.9 1.39995 5.9H2.79995V5.2C2.79995 4.08609 3.24245 3.0178 4.0301 2.23015C4.81776 1.4425 5.88604 1 6.99995 1C8.11386 1 9.18215 1.4425 9.9698 2.23015C10.7575 3.0178 11.2 4.08609 11.2 5.2V5.9ZM9.79995 5.9V5.2C9.79995 4.45739 9.50495 3.7452 8.97985 3.2201C8.45475 2.695 7.74256 2.4 6.99995 2.4C6.25735 2.4 5.54515 2.695 5.02005 3.2201C4.49495 3.7452 4.19995 4.45739 4.19995 5.2V5.9H9.79995ZM3.49995 8V9.4H4.89995V8H3.49995ZM3.49995 10.1V11.5H4.89995V10.1H3.49995ZM3.49995 12.2V13.6H4.89995V12.2H3.49995Z" fill="black" style="fill:black;fill-opacity:1;"/>
  </g>
  <defs>
    <clipPath id="clip0_728_898">
      <rect width="14" height="15.4" fill="white" style="fill:white;fill-opacity:1;" transform="translate(0 0.299805)"/>
    </clipPath>
  </defs>
</svg>
