<svg width="21" height="20" viewBox="0 0 21 20" fill="none" xmlns="http://www.w3.org/2000/svg">
  <path d="M16.3334 11.6668C16.4893 11.6668 16.6421 11.7106 16.7744 11.7931C16.9067 11.8755 17.0132 11.9935 17.0817 12.1335L17.1217 12.231L17.2301 12.546C17.3444 12.8811 17.5286 13.1882 17.7706 13.4468C18.0125 13.7054 18.3066 13.9096 18.6334 14.046L18.7876 14.1043L19.1026 14.2118C19.2586 14.265 19.3953 14.3633 19.4954 14.4942C19.5956 14.6252 19.6546 14.7828 19.6651 14.9473C19.6757 15.1118 19.6372 15.2757 19.5545 15.4183C19.4719 15.5609 19.3489 15.6758 19.2009 15.7485L19.1026 15.7885L18.7876 15.8968C18.4524 16.0112 18.1454 16.1954 17.8868 16.4373C17.6282 16.6793 17.424 16.9734 17.2876 17.3002L17.2292 17.4543L17.1217 17.7693C17.0685 17.9253 16.9702 18.062 16.8393 18.1622C16.7084 18.2623 16.5508 18.3214 16.3863 18.3319C16.2218 18.3424 16.0579 18.3039 15.9153 18.2213C15.7727 18.1387 15.6577 18.0156 15.5851 17.8677L15.5451 17.7693L15.4367 17.4543C15.3224 17.1192 15.1382 16.8121 14.8963 16.5535C14.6543 16.295 14.3602 16.0907 14.0334 15.9543L13.8792 15.896L13.5642 15.7885C13.4083 15.7353 13.2715 15.637 13.1714 15.5061C13.0713 15.3752 13.0122 15.2175 13.0017 15.053C12.9912 14.8885 13.0296 14.7246 13.1123 14.582C13.1949 14.4394 13.318 14.3245 13.4659 14.2518L13.5642 14.2118L13.8792 14.1035C14.2144 13.9892 14.5214 13.8049 14.78 13.563C15.0386 13.3211 15.2429 13.027 15.3792 12.7002L15.4376 12.546L15.5451 12.231C15.6012 12.0665 15.7074 11.9236 15.8488 11.8225C15.9901 11.7213 16.1596 11.6669 16.3334 11.6668ZM18.8334 5.80683V12.0752L18.8067 12.0077L18.6992 11.6918C18.535 11.2112 18.2283 10.7921 17.8199 10.4901C17.4116 10.1882 16.9209 10.0177 16.4133 10.0015C15.9057 9.98535 15.4052 10.1241 14.9784 10.3994C14.5516 10.6748 14.2188 11.0735 14.0242 11.5427L13.9676 11.6927L13.8592 12.0077C13.8234 12.1128 13.7669 12.2098 13.6931 12.2928C13.6192 12.3758 13.5295 12.4432 13.4292 12.491L13.3409 12.5268L13.0251 12.6343C12.6489 12.7629 12.3087 12.9793 12.0329 13.2656C11.7571 13.552 11.5535 13.8999 11.4391 14.2807C11.3248 14.6614 11.3028 15.064 11.3751 15.4549C11.4475 15.8458 11.612 16.2139 11.8551 16.5285L11.9701 16.6668H3.83341C3.41293 16.667 3.00794 16.5082 2.69962 16.2222C2.39131 15.9363 2.20245 15.5445 2.17091 15.1252L2.16675 15.0002V5.80683L9.70008 12.0852C9.90783 12.2582 10.1661 12.3591 10.4361 12.373C10.7061 12.3868 10.9733 12.3127 11.1976 12.1618L11.3001 12.0852L18.8334 5.80683ZM17.1667 3.3335C17.6367 3.3335 18.0609 3.52766 18.3634 3.84016L18.4601 3.9485L10.5001 10.5818L2.54008 3.9485C2.67985 3.77651 2.85251 3.63412 3.04797 3.52966C3.24343 3.42521 3.45776 3.36079 3.67841 3.34016L3.83341 3.3335H17.1667Z" fill="#9CC4E1" style="fill:#9CC4E1;fill:color(display-p3 0.6118 0.7686 0.8824);fill-opacity:1;"/>
</svg>
