<svg width="23" height="23" viewBox="0 0 23 23" fill="none" xmlns="http://www.w3.org/2000/svg">
  <path d="M20.6666 11.4998C20.6666 10.2413 20.4295 8.99516 19.9688 7.83245C19.5081 6.66975 18.8329 5.61329 17.9817 4.7234C17.1305 3.8335 16.12 3.1276 15.0078 2.64599C13.8957 2.16438 12.7037 1.9165 11.4999 1.9165V3.83317C12.9503 3.83314 14.368 4.28271 15.574 5.12503C16.7799 5.96736 17.7199 7.16462 18.275 8.56542C18.6436 9.49574 18.8333 10.4929 18.8333 11.4998H20.6666ZM2.33325 9.58317V4.7915C2.33325 4.53734 2.42983 4.29358 2.60174 4.11386C2.77365 3.93414 3.0068 3.83317 3.24992 3.83317H7.83325C8.07637 3.83317 8.30952 3.93414 8.48143 4.11386C8.65334 4.29358 8.74992 4.53734 8.74992 4.7915V8.62484C8.74992 8.879 8.65334 9.12276 8.48143 9.30248C8.30952 9.4822 8.07637 9.58317 7.83325 9.58317H5.99992C5.99992 11.6165 6.77253 13.5665 8.1478 15.0043C9.52307 16.4421 11.3883 17.2498 13.3333 17.2498V15.3332C13.3333 15.079 13.4298 14.8352 13.6017 14.6555C13.7736 14.4758 14.0068 14.3748 14.2499 14.3748H17.9166C18.1597 14.3748 18.3929 14.4758 18.5648 14.6555C18.7367 14.8352 18.8333 15.079 18.8333 15.3332V20.1248C18.8333 20.379 18.7367 20.6228 18.5648 20.8025C18.3929 20.9822 18.1597 21.0832 17.9166 21.0832H13.3333C7.2585 21.0832 2.33325 15.934 2.33325 9.58317Z" fill="#9CC4E1" style="fill:#9CC4E1;fill:color(display-p3 0.6118 0.7686 0.8824);fill-opacity:1;"/>
  <path d="M16.5811 9.29967C16.8576 9.99724 16.9999 10.7449 17 11.5H15.35C15.35 10.4325 14.9444 9.40873 14.2224 8.6539C13.5003 7.89906 12.5211 7.475 11.5 7.475V5.75C12.5878 5.75006 13.6511 6.08733 14.5555 6.71916C15.4599 7.351 16.1648 8.24902 16.5811 9.29967Z" fill="#9CC4E1" style="fill:#9CC4E1;fill:color(display-p3 0.6118 0.7686 0.8824);fill-opacity:1;"/>
</svg>
