<svg width="14" height="14" viewBox="0 0 14 14" fill="none" xmlns="http://www.w3.org/2000/svg">
  <g clip-path="url(#clip0_739_893)">
    <path d="M8.84746 0.583496L9.19629 1.23566C9.43196 1.67608 9.54979 1.89658 9.47163 1.99108C9.39404 2.08558 9.13738 2.00916 8.62346 1.85691C8.09644 1.70092 7.54967 1.62174 7.00004 1.62183C3.93929 1.62183 1.45838 4.02983 1.45838 7.00016C1.45745 7.94707 1.71349 8.87649 2.19921 9.68933M5.15321 13.4168L4.80438 12.7647C4.56871 12.3237 4.45088 12.1032 4.52904 12.0092C4.60663 11.9147 4.86329 11.9906 5.37721 12.1434C5.89054 12.2957 6.43596 12.3779 7.00063 12.3779C10.0614 12.3779 12.5423 9.96991 12.5423 6.99958C12.5431 6.05287 12.2871 5.12367 11.8015 4.311" stroke="black" style="stroke:black;stroke-opacity:1;" stroke-linecap="round" stroke-linejoin="round"/>
  </g>
  <defs>
    <clipPath id="clip0_739_893">
      <rect width="14" height="14" fill="white" style="fill:white;fill-opacity:1;"/>
    </clipPath>
  </defs>
</svg>
