<svg width="21" height="20" viewBox="0 0 21 20" fill="none" xmlns="http://www.w3.org/2000/svg">
  <path d="M15 2.20589C16.3682 2.99581 17.5043 4.13195 18.2942 5.50012C19.0842 6.8683 19.5 8.42029 19.5 10.0001C19.5 11.58 19.0841 13.1319 18.2942 14.5001C17.5043 15.8683 16.3681 17.0044 14.9999 17.7943C13.6317 18.5842 12.0797 19 10.4999 19C8.92002 19 7.36802 18.5841 5.99985 17.7942C4.63169 17.0042 3.49556 15.868 2.70567 14.4999C1.91578 13.1317 1.49996 11.5797 1.5 9.99984L1.5045 9.70824C1.5549 8.15394 2.00719 6.63923 2.81728 5.31177C3.62736 3.9843 4.76759 2.8894 6.1268 2.13379C7.48602 1.37818 9.01783 0.98766 10.5729 1.0003C12.128 1.01293 13.6532 1.4283 15 2.20589ZM10.5432 10.8989L10.6053 10.8935L10.6917 10.8791L10.7718 10.8584L10.8609 10.8242L10.9347 10.7882L11.0364 10.7225L11.1021 10.6685L11.1687 10.6019L11.2362 10.5173L11.283 10.4453L11.3145 10.3823L11.3604 10.2635L11.3883 10.142L11.3973 10.0682L11.4 9.99984V5.49987C11.4 5.26118 11.3052 5.03226 11.1364 4.86348C10.9676 4.6947 10.7387 4.59988 10.5 4.59988C10.2613 4.59988 10.0324 4.6947 9.8636 4.86348C9.69482 5.03226 9.6 5.26118 9.6 5.49987V7.02716L9.4488 6.80036C9.32643 6.61692 9.14096 6.48479 8.92761 6.42904C8.71426 6.3733 8.48787 6.39783 8.2914 6.49796L8.2014 6.55106C8.10298 6.61658 8.01844 6.70084 7.9526 6.79904C7.88676 6.89724 7.84091 7.00745 7.81767 7.12337C7.79444 7.23929 7.79427 7.35866 7.81718 7.47465C7.84009 7.59063 7.88563 7.70097 7.9512 7.79935L9.7674 10.5236L9.8304 10.6019L9.8979 10.6685L9.9825 10.736L10.0545 10.7828L10.1175 10.8143L10.2363 10.8602L10.3578 10.8881L10.4316 10.8971L10.5432 10.8989Z" fill="#9CC4E1" style="fill:#9CC4E1;fill:color(display-p3 0.6118 0.7686 0.8824);fill-opacity:1;"/>
</svg>
